<?xml version="1.0" encoding="UTF-8" standalone="no"?>
<svg
   width="460.80002pt"
   height="345.59998pt"
   viewBox="0 16 460.80003 345.59997"
   version="1.1"
   id="svg75"
   sodipodi:docname="true_counts_plot.svg"
   xmlns:inkscape="http://www.inkscape.org/namespaces/inkscape"
   xmlns:sodipodi="http://sodipodi.sourceforge.net/DTD/sodipodi-0.dtd"
   xmlns:xlink="http://www.w3.org/1999/xlink"
   xmlns="http://www.w3.org/2000/svg"
   xmlns:svg="http://www.w3.org/2000/svg"
   xmlns:rdf="http://www.w3.org/1999/02/22-rdf-syntax-ns#"
   xmlns:cc="http://creativecommons.org/ns#"
   xmlns:dc="http://purl.org/dc/elements/1.1/">
  <sodipodi:namedview
     id="namedview75"
     pagecolor="#ffffff"
     bordercolor="#000000"
     borderopacity="0.25"
     inkscape:showpageshadow="2"
     inkscape:pageopacity="0.0"
     inkscape:pagecheckerboard="0"
     inkscape:deskcolor="#d1d1d1"
     inkscape:document-units="pt" />
  <metadata
     id="metadata1">
    <rdf:RDF>
      <cc:Work>
        <dc:type
           rdf:resource="http://purl.org/dc/dcmitype/StillImage" />
        <dc:date>2025-01-16T10:11:31.687945</dc:date>
        <dc:format>image/svg+xml</dc:format>
        <dc:creator>
          <cc:Agent>
            <dc:title>Matplotlib v3.9.2, https://matplotlib.org/</dc:title>
          </cc:Agent>
        </dc:creator>
      </cc:Work>
    </rdf:RDF>
  </metadata>
  <defs
     id="defs1">
    <style
       type="text/css"
       id="style1">*{stroke-linejoin: round; stroke-linecap: butt}</style>
  </defs>
  <g
     id="figure_1">
    <g
       id="patch_1">
      <path
         d="M 0,345.6 H 460.8 V 0 H 0 Z"
         style="fill:#ffffff"
         id="path1" />
    </g>
    <g
       id="axes_1">
      <g
         id="patch_2">
        <path
           d="M 57.6,307.584 H 414.72 V 41.472 H 57.6 Z"
           style="fill:#ffffff"
           id="path2" />
      </g>
      <g
         id="matplotlib.axis_1">
        <g
           id="xtick_1">
          <g
             id="line2d_1">
            <defs
               id="defs2">
              <path
                 id="m65a63d74b9"
                 d="M 0,0 V 3.5"
                 style="stroke:#000000;stroke-width:0.8" />
            </defs>
            <g
               id="g2">
              <use
                 xlink:href="#m65a63d74b9"
                 x="108.00689"
                 y="307.58401"
                 style="stroke:#000000;stroke-width:0.8"
                 id="use2" />
            </g>
          </g>
          <g
             id="text_1">
            <!-- anger -->
            <g
               transform="matrix(0.1,0,0,-0.1,93.467827,322.18244)"
               id="g7">
              <defs
                 id="defs3">
                <path
                   id="DejaVuSans-61"
                   d="m 2194,1759 q -697,0 -966,-159 -269,-159 -269,-544 0,-306 202,-486 202,-179 548,-179 479,0 768,339 289,339 289,901 v 128 z m 1147,238 V 0 H 2766 V 531 Q 2569,213 2275,61 1981,-91 1556,-91 q -537,0 -855,302 -317,302 -317,808 0,590 395,890 396,300 1180,300 h 807 v 57 q 0,397 -261,614 -261,217 -733,217 -300,0 -585,-72 -284,-72 -546,-216 v 532 q 315,122 612,182 297,61 578,61 760,0 1135,-394 375,-393 375,-1193 z"
                   transform="scale(0.015625)" />
                <path
                   id="DejaVuSans-6e"
                   d="M 3513,2113 V 0 h -575 v 2094 q 0,497 -194,743 -194,247 -581,247 -466,0 -735,-297 -269,-296 -269,-809 V 0 H 581 v 3500 h 578 v -544 q 207,316 486,472 280,156 646,156 603,0 912,-373 310,-373 310,-1098 z"
                   transform="scale(0.015625)" />
                <path
                   id="DejaVuSans-67"
                   d="m 2906,1791 q 0,625 -258,968 -257,344 -723,344 -462,0 -720,-344 -258,-343 -258,-968 0,-622 258,-966 258,-344 720,-344 466,0 723,344 258,344 258,966 z M 3481,434 q 0,-893 -397,-1329 -396,-436 -1215,-436 -303,0 -572,45 -269,45 -522,139 v 559 q 253,-137 500,-202 247,-66 503,-66 566,0 847,295 281,295 281,892 V 616 Q 2728,306 2450,153 2172,0 1784,0 1141,0 747,490 353,981 353,1791 q 0,812 394,1302 394,491 1037,491 388,0 666,-153 278,-153 456,-462 v 531 h 575 z"
                   transform="scale(0.015625)" />
                <path
                   id="DejaVuSans-65"
                   d="M 3597,1894 V 1613 H 953 q 38,-594 358,-905 320,-311 892,-311 331,0 642,81 311,81 618,244 V 178 Q 3153,47 2828,-22 2503,-91 2169,-91 1331,-91 842,396 353,884 353,1716 q 0,859 464,1363 464,505 1252,505 706,0 1117,-455 411,-454 411,-1235 z m -575,169 q -6,471 -264,752 -258,282 -683,282 -481,0 -770,-272 -289,-272 -333,-766 z"
                   transform="scale(0.015625)" />
                <path
                   id="DejaVuSans-72"
                   d="m 2631,2963 q -97,56 -211,82 -114,27 -251,27 -488,0 -749,-317 -261,-317 -261,-911 V 0 H 581 v 3500 h 578 v -544 q 182,319 472,473 291,155 707,155 59,0 131,-8 72,-7 159,-23 z"
                   transform="scale(0.015625)" />
              </defs>
              <use
                 xlink:href="#DejaVuSans-61"
                 id="use3" />
              <use
                 xlink:href="#DejaVuSans-6e"
                 x="61.279297"
                 id="use4" />
              <use
                 xlink:href="#DejaVuSans-67"
                 x="124.6582"
                 id="use5" />
              <use
                 xlink:href="#DejaVuSans-65"
                 x="188.13477"
                 id="use6" />
              <use
                 xlink:href="#DejaVuSans-72"
                 x="249.6582"
                 id="use7" />
            </g>
          </g>
        </g>
        <g
           id="xtick_2">
          <g
             id="line2d_2">
            <g
               id="g8">
              <use
                 xlink:href="#m65a63d74b9"
                 x="193.44229"
                 y="307.58401"
                 style="stroke:#000000;stroke-width:0.8"
                 id="use8" />
            </g>
          </g>
          <g
             id="text_2">
            <!-- fear -->
            <g
               transform="matrix(0.1,0,0,-0.1,183.48605,322.18244)"
               id="g12">
              <defs
                 id="defs8">
                <path
                   id="DejaVuSans-66"
                   d="m 2375,4863 v -479 h -550 q -309,0 -430,-125 -120,-125 -120,-450 v -309 h 947 V 3053 H 1275 V 0 H 697 V 3053 H 147 v 447 h 550 v 244 q 0,584 272,851 272,268 862,268 z"
                   transform="scale(0.015625)" />
              </defs>
              <use
                 xlink:href="#DejaVuSans-66"
                 id="use9" />
              <use
                 xlink:href="#DejaVuSans-65"
                 x="35.205078"
                 id="use10" />
              <use
                 xlink:href="#DejaVuSans-61"
                 x="96.728516"
                 id="use11" />
              <use
                 xlink:href="#DejaVuSans-72"
                 x="158.00781"
                 id="use12" />
            </g>
          </g>
        </g>
        <g
           id="xtick_3">
          <g
             id="line2d_3">
            <g
               id="g13">
              <use
                 xlink:href="#m65a63d74b9"
                 x="278.87772"
                 y="307.58401"
                 style="stroke:#000000;stroke-width:0.8"
                 id="use13" />
            </g>
          </g>
          <g
             id="text_3">
            <!-- joy -->
            <g
               transform="matrix(0.1,0,0,-0.1,271.46989,322.18244)"
               id="g16">
              <defs
                 id="defs13">
                <path
                   id="DejaVuSans-6a"
                   d="m 603,3500 h 575 V -63 q 0,-668 -255,-968 -254,-300 -820,-300 h -219 v 487 H 38 q 328,0 446,152 119,151 119,629 z m 0,1363 h 575 V 4134 H 603 Z"
                   transform="scale(0.015625)" />
                <path
                   id="DejaVuSans-6f"
                   d="m 1959,3097 q -462,0 -731,-361 -269,-361 -269,-989 0,-628 267,-989 268,-361 733,-361 460,0 728,362 269,363 269,988 0,622 -269,986 -268,364 -728,364 z m 0,487 q 750,0 1178,-488 429,-487 429,-1349 Q 3566,888 3137,398 2709,-91 1959,-91 1206,-91 779,398 353,888 353,1747 q 0,862 426,1349 427,488 1180,488 z"
                   transform="scale(0.015625)" />
                <path
                   id="DejaVuSans-79"
                   d="m 2059,-325 q -243,-625 -475,-815 -231,-191 -618,-191 H 506 v 481 h 338 q 237,0 368,113 132,112 291,531 L 1606,56 191,3500 H 800 L 1894,763 2988,3500 h 609 z"
                   transform="scale(0.015625)" />
              </defs>
              <use
                 xlink:href="#DejaVuSans-6a"
                 id="use14" />
              <use
                 xlink:href="#DejaVuSans-6f"
                 x="27.783203"
                 id="use15" />
              <use
                 xlink:href="#DejaVuSans-79"
                 x="88.964844"
                 id="use16" />
            </g>
          </g>
        </g>
        <g
           id="xtick_4">
          <g
             id="line2d_4">
            <g
               id="g17">
              <use
                 xlink:href="#m65a63d74b9"
                 x="364.31311"
                 y="307.58401"
                 style="stroke:#000000;stroke-width:0.8"
                 id="use17" />
            </g>
          </g>
          <g
             id="text_4">
            <!-- sadness -->
            <g
               transform="matrix(0.1,0,0,-0.1,344.01545,322.18244)"
               id="g24">
              <defs
                 id="defs17">
                <path
                   id="DejaVuSans-73"
                   d="m 2834,3397 v -544 q -243,125 -506,187 -262,63 -544,63 -428,0 -642,-131 -214,-131 -214,-394 0,-200 153,-314 153,-114 616,-217 l 197,-44 q 612,-131 870,-370 258,-239 258,-667 0,-488 -386,-773 Q 2250,-91 1575,-91 1294,-91 989,-36 684,19 347,128 v 594 q 319,-166 628,-249 309,-82 613,-82 406,0 624,139 219,139 219,392 0,234 -158,359 -157,125 -692,241 l -200,47 q -534,112 -772,345 -237,233 -237,639 0,494 350,762 350,269 994,269 318,0 599,-47 282,-46 519,-140 z"
                   transform="scale(0.015625)" />
                <path
                   id="DejaVuSans-64"
                   d="m 2906,2969 v 1894 h 575 V 0 H 2906 V 525 Q 2725,213 2448,61 2172,-91 1784,-91 1150,-91 751,415 353,922 353,1747 q 0,825 398,1331 399,506 1033,506 388,0 664,-152 277,-151 458,-463 z M 947,1747 q 0,-634 261,-995 261,-361 717,-361 456,0 718,361 263,361 263,995 0,634 -263,995 -262,361 -718,361 -456,0 -717,-361 -261,-361 -261,-995 z"
                   transform="scale(0.015625)" />
              </defs>
              <use
                 xlink:href="#DejaVuSans-73"
                 id="use18" />
              <use
                 xlink:href="#DejaVuSans-61"
                 x="52.099609"
                 id="use19" />
              <use
                 xlink:href="#DejaVuSans-64"
                 x="113.37891"
                 id="use20" />
              <use
                 xlink:href="#DejaVuSans-6e"
                 x="176.85547"
                 id="use21" />
              <use
                 xlink:href="#DejaVuSans-65"
                 x="240.23438"
                 id="use22" />
              <use
                 xlink:href="#DejaVuSans-73"
                 x="301.75781"
                 id="use23" />
              <use
                 xlink:href="#DejaVuSans-73"
                 x="353.85742"
                 id="use24" />
            </g>
          </g>
        </g>
        <g
           id="text_5">
          <!-- Emotion Type -->
          <g
             transform="matrix(0.1,0,0,-0.1,202.42172,335.86056)"
             id="g36">
            <defs
               id="defs24">
              <path
                 id="DejaVuSans-45"
                 d="M 628,4666 H 3578 V 4134 H 1259 V 2753 H 3481 V 2222 H 1259 V 531 H 3634 V 0 H 628 Z"
                 transform="scale(0.015625)" />
              <path
                 id="DejaVuSans-6d"
                 d="m 3328,2828 q 216,388 516,572 300,184 706,184 547,0 844,-383 297,-382 297,-1088 V 0 h -578 v 2094 q 0,503 -179,746 -178,244 -543,244 -447,0 -707,-297 -259,-296 -259,-809 V 0 h -578 v 2094 q 0,506 -178,748 -178,242 -550,242 -441,0 -701,-298 -259,-298 -259,-808 V 0 H 581 v 3500 h 578 v -544 q 197,322 472,475 275,153 653,153 382,0 649,-194 267,-193 395,-562 z"
                 transform="scale(0.015625)" />
              <path
                 id="DejaVuSans-74"
                 d="M 1172,4494 V 3500 H 2356 V 3053 H 1172 V 1153 q 0,-428 117,-550 117,-122 477,-122 h 590 V 0 H 1766 Q 1100,0 847,248 594,497 594,1153 V 3053 H 172 v 447 h 422 v 994 z"
                 transform="scale(0.015625)" />
              <path
                 id="DejaVuSans-69"
                 d="m 603,3500 h 575 V 0 H 603 Z m 0,1363 h 575 V 4134 H 603 Z"
                 transform="scale(0.015625)" />
              <path
                 id="DejaVuSans-20"
                 transform="scale(0.015625)"
                 d="" />
              <path
                 id="DejaVuSans-54"
                 d="M -19,4666 H 3928 V 4134 H 2272 V 0 H 1638 V 4134 H -19 Z"
                 transform="scale(0.015625)" />
              <path
                 id="DejaVuSans-70"
                 d="M 1159,525 V -1331 H 581 v 4831 h 578 v -531 q 182,312 458,463 277,152 661,152 638,0 1036,-506 399,-506 399,-1331 0,-825 -399,-1332 -398,-506 -1036,-506 -384,0 -661,152 -276,152 -458,464 z m 1957,1222 q 0,634 -261,995 -261,361 -717,361 -457,0 -718,-361 -261,-361 -261,-995 0,-634 261,-995 261,-361 718,-361 456,0 717,361 261,361 261,995 z"
                 transform="scale(0.015625)" />
            </defs>
            <use
               xlink:href="#DejaVuSans-45"
               id="use25" />
            <use
               xlink:href="#DejaVuSans-6d"
               x="63.183594"
               id="use26" />
            <use
               xlink:href="#DejaVuSans-6f"
               x="160.5957"
               id="use27" />
            <use
               xlink:href="#DejaVuSans-74"
               x="221.77734"
               id="use28" />
            <use
               xlink:href="#DejaVuSans-69"
               x="260.98633"
               id="use29" />
            <use
               xlink:href="#DejaVuSans-6f"
               x="288.76953"
               id="use30" />
            <use
               xlink:href="#DejaVuSans-6e"
               x="349.95117"
               id="use31" />
            <use
               xlink:href="#DejaVuSans-20"
               x="413.33008"
               id="use32" />
            <use
               xlink:href="#DejaVuSans-54"
               x="445.11719"
               id="use33" />
            <use
               xlink:href="#DejaVuSans-79"
               x="490.57617"
               id="use34" />
            <use
               xlink:href="#DejaVuSans-70"
               x="549.75586"
               id="use35" />
            <use
               xlink:href="#DejaVuSans-65"
               x="613.23242"
               id="use36" />
          </g>
        </g>
      </g>
      <g
         id="matplotlib.axis_2">
        <g
           id="ytick_1">
          <g
             id="line2d_5">
            <path
               d="M 57.6,307.584 H 414.72"
               clip-path="url(#p27e5f47f7a)"
               style="fill:none;stroke:#b0b0b0;stroke-width:0.8;stroke-dasharray:2.96, 1.28;stroke-dashoffset:0;stroke-opacity:0.7"
               id="path36" />
          </g>
          <g
             id="line2d_6">
            <defs
               id="defs36">
              <path
                 id="m78be076438"
                 d="M 0,0 H -3.5"
                 style="stroke:#000000;stroke-width:0.8" />
            </defs>
            <g
               id="g37">
              <use
                 xlink:href="#m78be076438"
                 x="57.599998"
                 y="307.58401"
                 style="stroke:#000000;stroke-width:0.8"
                 id="use37" />
            </g>
          </g>
          <g
             id="text_6">
            <!-- 0 -->
            <g
               transform="matrix(0.1,0,0,-0.1,44.2375,311.38322)"
               id="g38">
              <defs
                 id="defs37">
                <path
                   id="DejaVuSans-30"
                   d="m 2034,4250 q -487,0 -733,-480 -245,-479 -245,-1442 0,-959 245,-1439 246,-480 733,-480 491,0 736,480 246,480 246,1439 0,963 -246,1442 -245,480 -736,480 z m 0,500 q 785,0 1199,-621 414,-620 414,-1801 0,-1178 -414,-1799 -414,-620 -1199,-620 -784,0 -1198,620 -414,621 -414,1799 0,1181 414,1801 414,621 1198,621 z"
                   transform="scale(0.015625)" />
              </defs>
              <use
                 xlink:href="#DejaVuSans-30"
                 id="use38" />
            </g>
          </g>
        </g>
        <g
           id="ytick_2">
          <g
             id="line2d_7">
            <path
               d="M 57.6,254.3616 H 414.72"
               clip-path="url(#p27e5f47f7a)"
               style="fill:none;stroke:#b0b0b0;stroke-width:0.8;stroke-dasharray:2.96, 1.28;stroke-dashoffset:0;stroke-opacity:0.7"
               id="path38" />
          </g>
          <g
             id="line2d_8">
            <g
               id="g39">
              <use
                 xlink:href="#m78be076438"
                 x="57.599998"
                 y="254.3616"
                 style="stroke:#000000;stroke-width:0.8"
                 id="use39" />
            </g>
          </g>
          <g
             id="text_7">
            <!-- 20 -->
            <g
               transform="matrix(0.1,0,0,-0.1,37.875,258.16082)"
               id="g41">
              <defs
                 id="defs39">
                <path
                   id="DejaVuSans-32"
                   d="M 1228,531 H 3431 V 0 H 469 v 531 q 359,372 979,998 621,627 780,809 303,340 423,576 121,236 121,464 0,372 -261,606 -261,235 -680,235 -297,0 -627,-103 -329,-103 -704,-313 v 638 q 381,153 712,231 332,78 607,78 725,0 1156,-363 431,-362 431,-968 0,-288 -108,-546 -107,-257 -392,-607 -78,-91 -497,-524 Q 1991,1309 1228,531 Z"
                   transform="scale(0.015625)" />
              </defs>
              <use
                 xlink:href="#DejaVuSans-32"
                 id="use40" />
              <use
                 xlink:href="#DejaVuSans-30"
                 x="63.623047"
                 id="use41" />
            </g>
          </g>
        </g>
        <g
           id="ytick_3">
          <g
             id="line2d_9">
            <path
               d="M 57.6,201.1392 H 414.72"
               clip-path="url(#p27e5f47f7a)"
               style="fill:none;stroke:#b0b0b0;stroke-width:0.8;stroke-dasharray:2.96, 1.28;stroke-dashoffset:0;stroke-opacity:0.7"
               id="path41" />
          </g>
          <g
             id="line2d_10">
            <g
               id="g42">
              <use
                 xlink:href="#m78be076438"
                 x="57.599998"
                 y="201.13921"
                 style="stroke:#000000;stroke-width:0.8"
                 id="use42" />
            </g>
          </g>
          <g
             id="text_8">
            <!-- 40 -->
            <g
               transform="matrix(0.1,0,0,-0.1,37.875,204.93842)"
               id="g44">
              <defs
                 id="defs42">
                <path
                   id="DejaVuSans-34"
                   d="M 2419,4116 825,1625 h 1594 z m -166,550 h 794 V 1625 h 666 V 1100 H 3047 V 0 H 2419 V 1100 H 313 v 609 z"
                   transform="scale(0.015625)" />
              </defs>
              <use
                 xlink:href="#DejaVuSans-34"
                 id="use43" />
              <use
                 xlink:href="#DejaVuSans-30"
                 x="63.623047"
                 id="use44" />
            </g>
          </g>
        </g>
        <g
           id="ytick_4">
          <g
             id="line2d_11">
            <path
               d="M 57.6,147.9168 H 414.72"
               clip-path="url(#p27e5f47f7a)"
               style="fill:none;stroke:#b0b0b0;stroke-width:0.8;stroke-dasharray:2.96, 1.28;stroke-dashoffset:0;stroke-opacity:0.7"
               id="path44" />
          </g>
          <g
             id="line2d_12">
            <g
               id="g45">
              <use
                 xlink:href="#m78be076438"
                 x="57.599998"
                 y="147.91679"
                 style="stroke:#000000;stroke-width:0.8"
                 id="use45" />
            </g>
          </g>
          <g
             id="text_9">
            <!-- 60 -->
            <g
               transform="matrix(0.1,0,0,-0.1,37.875,151.71602)"
               id="g47">
              <defs
                 id="defs45">
                <path
                   id="DejaVuSans-36"
                   d="m 2113,2584 q -425,0 -674,-291 -248,-290 -248,-796 0,-503 248,-796 249,-292 674,-292 425,0 673,292 248,293 248,796 0,506 -248,796 -248,291 -673,291 z m 1253,1979 v -575 q -238,112 -480,171 -242,60 -480,60 -625,0 -955,-422 -329,-422 -376,-1275 184,272 462,417 279,145 613,145 703,0 1111,-427 408,-426 408,-1160 0,-719 -425,-1154 -425,-434 -1131,-434 -810,0 -1238,620 -428,621 -428,1799 0,1106 525,1764 525,658 1409,658 238,0 480,-47 242,-47 505,-140 z"
                   transform="scale(0.015625)" />
              </defs>
              <use
                 xlink:href="#DejaVuSans-36"
                 id="use46" />
              <use
                 xlink:href="#DejaVuSans-30"
                 x="63.623047"
                 id="use47" />
            </g>
          </g>
        </g>
        <g
           id="ytick_5">
          <g
             id="line2d_13">
            <path
               d="M 57.6,94.6944 H 414.72"
               clip-path="url(#p27e5f47f7a)"
               style="fill:none;stroke:#b0b0b0;stroke-width:0.8;stroke-dasharray:2.96, 1.28;stroke-dashoffset:0;stroke-opacity:0.7"
               id="path47" />
          </g>
          <g
             id="line2d_14">
            <g
               id="g48">
              <use
                 xlink:href="#m78be076438"
                 x="57.599998"
                 y="94.694397"
                 style="stroke:#000000;stroke-width:0.8"
                 id="use48" />
            </g>
          </g>
          <g
             id="text_10">
            <!-- 80 -->
            <g
               transform="matrix(0.1,0,0,-0.1,37.875,98.493619)"
               id="g50">
              <defs
                 id="defs48">
                <path
                   id="DejaVuSans-38"
                   d="m 2034,2216 q -450,0 -708,-241 -257,-241 -257,-662 0,-422 257,-663 258,-241 708,-241 450,0 709,242 260,243 260,662 0,421 -258,662 -257,241 -711,241 z m -631,268 q -406,100 -633,378 -226,279 -226,679 0,559 398,884 399,325 1092,325 697,0 1094,-325 397,-325 397,-884 0,-400 -227,-679 -226,-278 -629,-378 456,-106 710,-416 255,-309 255,-755 Q 3634,634 3220,271 2806,-91 2034,-91 1263,-91 848,271 434,634 434,1313 q 0,446 256,755 257,310 713,416 z m -231,997 q 0,-362 226,-565 227,-203 636,-203 407,0 636,203 230,203 230,565 0,363 -230,566 -229,203 -636,203 -409,0 -636,-203 -226,-203 -226,-566 z"
                   transform="scale(0.015625)" />
              </defs>
              <use
                 xlink:href="#DejaVuSans-38"
                 id="use49" />
              <use
                 xlink:href="#DejaVuSans-30"
                 x="63.623047"
                 id="use50" />
            </g>
          </g>
        </g>
        <g
           id="ytick_6">
          <g
             id="line2d_15">
            <path
               d="M 57.6,41.472 H 414.72"
               clip-path="url(#p27e5f47f7a)"
               style="fill:none;stroke:#b0b0b0;stroke-width:0.8;stroke-dasharray:2.96, 1.28;stroke-dashoffset:0;stroke-opacity:0.7"
               id="path50" />
          </g>
          <g
             id="line2d_16">
            <g
               id="g51">
              <use
                 xlink:href="#m78be076438"
                 x="57.599998"
                 y="41.472"
                 style="stroke:#000000;stroke-width:0.8"
                 id="use51" />
            </g>
          </g>
          <g
             id="text_11">
            <!-- 100 -->
            <g
               transform="matrix(0.1,0,0,-0.1,31.5125,45.271219)"
               id="g54">
              <defs
                 id="defs51">
                <path
                   id="DejaVuSans-31"
                   d="M 794,531 H 1825 V 4091 L 703,3866 v 575 l 1116,225 h 631 V 531 H 3481 V 0 H 794 Z"
                   transform="scale(0.015625)" />
              </defs>
              <use
                 xlink:href="#DejaVuSans-31"
                 id="use52" />
              <use
                 xlink:href="#DejaVuSans-30"
                 x="63.623047"
                 id="use53" />
              <use
                 xlink:href="#DejaVuSans-30"
                 x="127.24609"
                 id="use54" />
            </g>
          </g>
        </g>
        <g
           id="text_12">
          <!-- Accuracy -->
          <g
             transform="matrix(0,-0.1,-0.1,0,25.432812,197.35612)"
             id="g62">
            <defs
               id="defs54">
              <path
                 id="DejaVuSans-41"
                 d="M 2188,4044 1331,1722 h 1716 z m -357,622 h 716 L 4325,0 H 3669 L 3244,1197 H 1141 L 716,0 H 50 Z"
                 transform="scale(0.015625)" />
              <path
                 id="DejaVuSans-63"
                 d="m 3122,3366 v -538 q -244,135 -489,202 -245,67 -495,67 -560,0 -870,-355 -309,-354 -309,-995 0,-641 309,-996 310,-354 870,-354 250,0 495,67 245,67 489,202 V 134 Q 2881,22 2623,-34 2366,-91 2075,-91 1284,-91 818,406 353,903 353,1747 q 0,856 470,1346 471,491 1290,491 265,0 518,-55 253,-54 491,-163 z"
                 transform="scale(0.015625)" />
              <path
                 id="DejaVuSans-75"
                 d="m 544,1381 v 2119 h 575 V 1403 q 0,-497 193,-746 194,-248 582,-248 465,0 735,297 271,297 271,810 v 1984 h 575 V 0 H 2900 V 538 Q 2691,219 2414,64 2138,-91 1772,-91 1169,-91 856,284 544,659 544,1381 Z m 1447,2203 z"
                 transform="scale(0.015625)" />
            </defs>
            <use
               xlink:href="#DejaVuSans-41"
               id="use55" />
            <use
               xlink:href="#DejaVuSans-63"
               x="66.658203"
               id="use56" />
            <use
               xlink:href="#DejaVuSans-63"
               x="121.63867"
               id="use57" />
            <use
               xlink:href="#DejaVuSans-75"
               x="176.61914"
               id="use58" />
            <use
               xlink:href="#DejaVuSans-72"
               x="239.99805"
               id="use59" />
            <use
               xlink:href="#DejaVuSans-61"
               x="281.11133"
               id="use60" />
            <use
               xlink:href="#DejaVuSans-63"
               x="342.39062"
               id="use61" />
            <use
               xlink:href="#DejaVuSans-79"
               x="397.37109"
               id="use62" />
          </g>
        </g>
      </g>
      <g
         id="patch_3">
        <path
           d="M 73.832727,307.584 H 142.18105 V 283.63392 H 73.832727 Z"
           clip-path="url(#p27e5f47f7a)"
           style="fill:#ff0000"
           id="path62" />
      </g>
      <g
         id="patch_4">
        <path
           d="m 159.26813,307.584 h 68.34833 V 105.33888 h -68.34833 z"
           clip-path="url(#p27e5f47f7a)"
           style="fill:#008000"
           id="path63" />
      </g>
      <g
         id="patch_5">
        <path
           d="m 244.70354,307.584 h 68.34833 V 86.71104 h -68.34833 z"
           clip-path="url(#p27e5f47f7a)"
           style="fill:#ffa500"
           id="path64" />
      </g>
      <g
         id="patch_6">
        <path
           d="m 330.13895,307.584 h 68.34832 V 49.45536 h -68.34832 z"
           clip-path="url(#p27e5f47f7a)"
           style="fill:#0000ff"
           id="path65" />
      </g>
      <g
         id="patch_7">
        <path
           d="M 57.6,307.584 V 41.472"
           style="fill:none;stroke:#000000;stroke-width:0.8;stroke-linecap:square;stroke-linejoin:miter"
           id="path66" />
      </g>
      <g
         id="patch_8">
        <path
           d="M 414.72,307.584 V 41.472"
           style="fill:none;stroke:#000000;stroke-width:0.8;stroke-linecap:square;stroke-linejoin:miter"
           id="path67" />
      </g>
      <g
         id="patch_9">
        <path
           d="M 57.6,307.584 H 414.72"
           style="fill:none;stroke:#000000;stroke-width:0.8;stroke-linecap:square;stroke-linejoin:miter"
           id="path68" />
      </g>
      <g
         id="patch_10">
        <path
           d="M 57.6,41.472 H 414.72"
           style="fill:none;stroke:#000000;stroke-width:0.8;stroke-linecap:square;stroke-linejoin:miter"
           id="path69" />
      </g>
      <g
         id="text_13">
        <!-- 9 -->
        <g
           transform="matrix(0.1,0,0,-0.1,104.82564,278.89311)"
           id="g69">
          <defs
             id="defs69">
            <path
               id="DejaVuSans-39"
               d="m 703,97 v 575 q 238,-113 481,-172 244,-59 479,-59 625,0 954,420 330,420 377,1277 -181,-269 -460,-413 -278,-144 -615,-144 -700,0 -1108,423 -408,424 -408,1159 0,718 425,1152 425,435 1131,435 810,0 1236,-621 427,-620 427,-1801 Q 3622,1225 3098,567 2575,-91 1691,-91 1453,-91 1209,-44 966,3 703,97 Z m 1256,1978 q 425,0 673,290 249,291 249,798 0,503 -249,795 -248,292 -673,292 -425,0 -673,-292 -248,-292 -248,-795 0,-507 248,-798 248,-290 673,-290 z"
               transform="scale(0.015625)" />
          </defs>
          <use
             xlink:href="#DejaVuSans-39"
             id="use69" />
        </g>
      </g>
      <g
         id="text_14">
        <!-- 76 -->
        <g
           transform="matrix(0.1,0,0,-0.1,187.0798,100.59807)"
           id="g71">
          <defs
             id="defs70">
            <path
               id="DejaVuSans-37"
               d="M 525,4666 H 3525 V 4397 L 1831,0 H 1172 L 2766,4134 H 525 Z"
               transform="scale(0.015625)" />
          </defs>
          <use
             xlink:href="#DejaVuSans-37"
             id="use70" />
          <use
             xlink:href="#DejaVuSans-36"
             x="63.623047"
             id="use71" />
        </g>
      </g>
      <g
         id="text_15">
        <!-- 83 -->
        <g
           transform="matrix(0.1,0,0,-0.1,272.5152,81.970233)"
           id="g73">
          <defs
             id="defs71">
            <path
               id="DejaVuSans-33"
               d="m 2597,2516 q 453,-97 707,-404 255,-306 255,-756 0,-690 -475,-1069 -475,-378 -1350,-378 -293,0 -604,58 -311,58 -642,174 v 609 q 262,-153 574,-231 313,-78 654,-78 593,0 904,234 311,234 311,681 0,413 -289,645 -289,233 -804,233 h -544 v 519 h 569 q 465,0 712,186 247,186 247,536 0,359 -255,551 -254,193 -729,193 -260,0 -557,-57 -297,-56 -653,-174 v 562 q 360,100 674,150 314,50 592,50 719,0 1137,-327 419,-326 419,-882 0,-388 -222,-655 -222,-267 -631,-370 z"
               transform="scale(0.015625)" />
          </defs>
          <use
             xlink:href="#DejaVuSans-38"
             id="use72" />
          <use
             xlink:href="#DejaVuSans-33"
             x="63.623047"
             id="use73" />
        </g>
      </g>
      <g
         id="text_16">
        <!-- 97 -->
        <g
           transform="matrix(0.1,0,0,-0.1,357.95061,44.714553)"
           id="g75">
          <use
             xlink:href="#DejaVuSans-39"
             id="use74" />
          <use
             xlink:href="#DejaVuSans-37"
             x="63.623047"
             id="use75" />
        </g>
      </g>
    </g>
  </g>
  <defs
     id="defs75">
    <clipPath
       id="p27e5f47f7a">
      <rect
         x="57.599998"
         y="41.472"
         width="357.12"
         height="266.112"
         id="rect75" />
    </clipPath>
  </defs>
</svg>
